<?xml version="1.0" standalone="no"?>
<!DOCTYPE svg PUBLIC "-//W3C//DTD SVG 20010904//EN"
 "http://www.w3.org/TR/2001/REC-SVG-20010904/DTD/svg10.dtd">
<svg version="1.0" xmlns="http://www.w3.org/2000/svg"
 width="300.000000pt" height="50.000000pt" viewBox="0 0 300.000000 50.000000"
 preserveAspectRatio="xMidYMid meet">

<g transform="translate(0.000000,50.000000) scale(0.100000,-0.100000)"
fill="#000000" stroke="none">
<path d="M0 250 l0 -250 1500 0 1500 0 0 250 0 250 -1500 0 -1500 0 0 -250z
m1168 167 c4 -20 -25 -34 -40 -19 -15 15 -1 44 19 40 10 -2 19 -11 21 -21z
m320 0 c4 -20 -25 -34 -40 -19 -15 15 -1 44 19 40 10 -2 19 -11 21 -21z m1022
-142 c0 -140 -2 -165 -15 -165 -13 0 -15 25 -15 165 0 140 2 165 15 165 13 0
15 -25 15 -165z m110 0 c0 -140 -2 -165 -15 -165 -13 0 -15 25 -15 165 0 140
2 165 15 165 13 0 15 -25 15 -165z m118 142 c4 -20 -25 -34 -40 -19 -15 15 -1
44 19 40 10 -2 19 -11 21 -21z m-2543 -117 l58 -130 56 127 c46 103 61 129 79
131 22 3 22 3 22 -157 0 -135 -2 -161 -15 -161 -12 0 -15 23 -17 128 l-3 127
-56 -124 c-30 -69 -60 -126 -66 -128 -6 -2 -35 51 -64 118 l-54 122 -3 -122
c-2 -113 -4 -121 -22 -121 -19 0 -20 7 -20 153 0 85 3 157 7 160 3 4 14 7 23
7 13 0 34 -36 75 -130z m1946 120 c25 -14 26 -45 2 -35 -41 15 -72 16 -106 1
-70 -29 -99 -125 -57 -193 28 -46 54 -57 122 -49 32 3 58 2 58 -3 0 -36 -116
-46 -169 -15 -36 21 -71 86 -71 130 0 73 36 134 95 160 36 16 99 18 126 4z
m-1520 -99 c22 -17 24 -29 27 -115 4 -92 3 -96 -17 -96 -13 0 -21 6 -21 17 0
15 -1 15 -18 0 -10 -10 -34 -17 -52 -17 -42 0 -70 25 -70 61 0 39 33 66 91 74
38 5 49 11 49 25 0 38 -46 49 -102 25 -13 -5 -18 -3 -18 9 0 36 93 48 131 17z
m127 -71 c3 -92 11 -110 51 -110 49 0 56 13 61 107 4 69 8 88 20 88 12 0 16
-20 18 -112 3 -108 2 -113 -18 -113 -11 0 -20 7 -20 16 0 14 -1 14 -16 0 -26
-26 -79 -24 -109 5 -16 15 -21 36 -23 99 -4 87 1 114 21 108 8 -3 13 -32 15
-88z m252 68 l0 -21 23 21 c30 28 57 29 57 1 0 -14 -5 -19 -15 -16 -7 3 -24
-2 -37 -13 -20 -15 -23 -29 -26 -99 -3 -61 -8 -81 -18 -81 -11 0 -14 23 -14
115 0 96 3 115 15 115 9 0 15 -9 15 -22z m160 -93 c0 -96 -3 -115 -15 -115
-12 0 -15 19 -15 115 0 96 3 115 15 115 12 0 15 -19 15 -115z m228 93 c3 -14
-3 -15 -37 -11 -54 7 -91 -28 -91 -87 0 -58 28 -84 86 -77 32 3 44 1 44 -9 0
-19 -15 -25 -60 -26 -53 -1 -87 23 -101 72 -26 87 30 164 116 158 28 -2 41 -8
43 -20z m92 -93 c0 -96 -3 -115 -15 -115 -12 0 -15 19 -15 115 0 96 3 115 15
115 12 0 15 -19 15 -115z m229 100 c59 -30 69 -147 16 -192 -31 -27 -108 -32
-142 -8 -45 31 -53 122 -17 174 29 41 92 53 143 26z m660 0 c59 -30 69 -147
16 -192 -31 -27 -108 -32 -142 -8 -45 31 -53 122 -17 174 29 41 92 53 143 26z
m361 -100 c0 -96 -3 -115 -15 -115 -12 0 -15 19 -15 115 0 96 3 115 15 115 12
0 15 -19 15 -115z m198 93 c3 -14 -3 -16 -32 -11 -37 6 -66 -8 -66 -33 0 -7
24 -25 53 -41 44 -24 52 -33 55 -60 4 -40 -30 -66 -88 -65 -45 1 -60 7 -60 26
0 9 15 11 55 8 54 -4 55 -4 55 22 0 22 -8 30 -44 46 -68 29 -82 65 -41 106 20
20 33 25 68 22 30 -2 43 -8 45 -20z"/>
<path d="M532 209 c-18 -7 -23 -15 -20 -36 6 -56 98 -34 98 24 0 19 -5 23 -27
22 -16 0 -38 -4 -51 -10z"/>
<path d="M1605 285 c-18 -17 -25 -35 -25 -62 0 -56 23 -83 69 -83 60 0 88 47
70 115 -16 58 -72 73 -114 30z"/>
<path d="M2265 285 c-18 -17 -25 -35 -25 -62 0 -56 23 -83 69 -83 60 0 88 47
70 115 -16 58 -72 73 -114 30z"/>
</g>
</svg>
